<svg xmlns="http://www.w3.org/2000/svg" version="1.1" xmlns:xlink="http://www.w3.org/1999/xlink" xmlns:svgjs="http://svgjs.com/svgjs" width="1440" height="560" preserveAspectRatio="none" viewBox="0 0 1440 560"><g mask="url(&quot;#SvgjsMask1024&quot;)" fill="none"><path d="M1063 335L1062 685" stroke-width="6" stroke="url(#SvgjsLinearGradient1025)" stroke-linecap="round" class="Up"></path><path d="M955 287L954 83" stroke-width="10" stroke="url(#SvgjsLinearGradient1025)" stroke-linecap="round" class="Up"></path><path d="M1024 416L1023 597" stroke-width="6" stroke="url(#SvgjsLinearGradient1025)" stroke-linecap="round" class="Up"></path><path d="M1421 388L1420 213" stroke-width="6" stroke="url(#SvgjsLinearGradient1025)" stroke-linecap="round" class="Up"></path><path d="M417 536L416 361" stroke-width="10" stroke="url(#SvgjsLinearGradient1026)" stroke-linecap="round" class="Down"></path><path d="M38 187L37 519" stroke-width="8" stroke="url(#SvgjsLinearGradient1026)" stroke-linecap="round" class="Down"></path><path d="M1047 491L1046 76" stroke-width="10" stroke="url(#SvgjsLinearGradient1025)" stroke-linecap="round" class="Up"></path><path d="M863 379L862 762" stroke-width="8" stroke="url(#SvgjsLinearGradient1025)" stroke-linecap="round" class="Up"></path><path d="M836 496L835 746" stroke-width="8" stroke="url(#SvgjsLinearGradient1025)" stroke-linecap="round" class="Up"></path><path d="M1192 376L1191 57" stroke-width="10" stroke="url(#SvgjsLinearGradient1025)" stroke-linecap="round" class="Up"></path><path d="M1183 57L1182 220" stroke-width="10" stroke="url(#SvgjsLinearGradient1025)" stroke-linecap="round" class="Up"></path><path d="M1188 242L1187 -83" stroke-width="6" stroke="url(#SvgjsLinearGradient1025)" stroke-linecap="round" class="Up"></path><path d="M1331 187L1330 -142" stroke-width="8" stroke="url(#SvgjsLinearGradient1025)" stroke-linecap="round" class="Up"></path><path d="M704 101L703 469" stroke-width="10" stroke="url(#SvgjsLinearGradient1026)" stroke-linecap="round" class="Down"></path><path d="M387 531L386 278" stroke-width="8" stroke="url(#SvgjsLinearGradient1025)" stroke-linecap="round" class="Up"></path><path d="M383 552L382 237" stroke-width="10" stroke="url(#SvgjsLinearGradient1025)" stroke-linecap="round" class="Up"></path><path d="M618 215L617 -23" stroke-width="8" stroke="url(#SvgjsLinearGradient1026)" stroke-linecap="round" class="Down"></path><path d="M929 113L928 -119" stroke-width="6" stroke="url(#SvgjsLinearGradient1025)" stroke-linecap="round" class="Up"></path><path d="M909 234L908 652" stroke-width="6" stroke="url(#SvgjsLinearGradient1025)" stroke-linecap="round" class="Up"></path><path d="M18 550L17 820" stroke-width="8" stroke="url(#SvgjsLinearGradient1026)" stroke-linecap="round" class="Down"></path><path d="M381 35L380 -347" stroke-width="8" stroke="url(#SvgjsLinearGradient1025)" stroke-linecap="round" class="Up"></path><path d="M541 14L540 240" stroke-width="6" stroke="url(#SvgjsLinearGradient1025)" stroke-linecap="round" class="Up"></path><path d="M320 181L319 424" stroke-width="10" stroke="url(#SvgjsLinearGradient1026)" stroke-linecap="round" class="Down"></path><path d="M800 507L799 813" stroke-width="6" stroke="url(#SvgjsLinearGradient1025)" stroke-linecap="round" class="Up"></path><path d="M1224 281L1223 602" stroke-width="8" stroke="url(#SvgjsLinearGradient1025)" stroke-linecap="round" class="Up"></path><path d="M226 534L225 141" stroke-width="6" stroke="url(#SvgjsLinearGradient1026)" stroke-linecap="round" class="Down"></path><path d="M47 327L46 -13" stroke-width="8" stroke="url(#SvgjsLinearGradient1025)" stroke-linecap="round" class="Up"></path><path d="M706 368L705 95" stroke-width="10" stroke="url(#SvgjsLinearGradient1026)" stroke-linecap="round" class="Down"></path><path d="M971 409L970 609" stroke-width="6" stroke="url(#SvgjsLinearGradient1025)" stroke-linecap="round" class="Up"></path><path d="M294 309L293 470" stroke-width="6" stroke="url(#SvgjsLinearGradient1025)" stroke-linecap="round" class="Up"></path><path d="M685 254L684 -49" stroke-width="6" stroke="url(#SvgjsLinearGradient1026)" stroke-linecap="round" class="Down"></path><path d="M19 469L18 747" stroke-width="10" stroke="url(#SvgjsLinearGradient1026)" stroke-linecap="round" class="Down"></path><path d="M37 449L36 79" stroke-width="6" stroke="url(#SvgjsLinearGradient1025)" stroke-linecap="round" class="Up"></path><path d="M1228 395L1227 122" stroke-width="10" stroke="url(#SvgjsLinearGradient1025)" stroke-linecap="round" class="Up"></path><path d="M219 387L218 680" stroke-width="6" stroke="url(#SvgjsLinearGradient1025)" stroke-linecap="round" class="Up"></path><path d="M1420 371L1419 61" stroke-width="6" stroke="url(#SvgjsLinearGradient1026)" stroke-linecap="round" class="Down"></path></g><defs><mask id="SvgjsMask1024"><rect width="1440" height="560" fill="#ffffff"></rect></mask><linearGradient x1="0%" y1="100%" x2="0%" y2="0%" id="SvgjsLinearGradient1025"><stop stop-color="rgba(79, 70, 229, 0)" offset="0"></stop><stop stop-color="rgba(79, 70, 229, 0.4)" offset="1"></stop></linearGradient><linearGradient x1="0%" y1="0%" x2="0%" y2="100%" id="SvgjsLinearGradient1026"><stop stop-color="rgba(79, 70, 229, 0)" offset="0"></stop><stop stop-color="rgba(79, 70, 229, 0.4)" offset="1"></stop></linearGradient></defs></svg>